<?xml version="1.0" encoding="utf-8"?>
<!-- Generator: Adobe Illustrator 23.0.4, SVG Export Plug-In . SVG Version: 6.00 Build 0)  -->
<svg version="1.1" id="Layer_1" xmlns="http://www.w3.org/2000/svg" xmlns:xlink="http://www.w3.org/1999/xlink" x="0px" y="0px"
	 viewBox="0 0 240 73" style="enable-background:new 0 0 240 73;" xml:space="preserve">
<style type="text/css">
	.st0{fill:#ffffff;}
	.st1{fill:#ffffff;}
	.st2{fill:#ffffff;}
	.st3{fill:#ffffff;}
</style>
<g>
	<g>
		<g>
			<path class="st0" d="M40.37,8.69c-7.48,0-14.09,3.71-18.1,9.39C25.97,15.36,30.55,14,36.01,14c6.57,0,11.38,2.21,14.42,6.62
				c2.17,3.14,3.56,6.81,4.19,11.01L28,36.96c0.05,2.96,0.73,5.15,2.04,6.57c1.31,1.42,3.27,2.13,5.89,2.13
				c1.49,0,2.7-0.28,3.6-0.85c0.91-0.57,1.76-1.51,2.56-2.82h12.34c-1.15,4.18-3.1,7.32-5.83,9.43
				c8.16-3.27,13.92-11.25,13.92-20.57C62.53,18.61,52.61,8.69,40.37,8.69z"/>
			<path class="st0" d="M40.46,24.45c-1.31-1.11-2.87-1.66-4.69-1.66c-2.03,0-3.69,0.54-4.97,1.62c-1.28,1.08-2.11,2.62-2.48,4.61
				l13.6-2.87C41.52,25.51,41.03,24.94,40.46,24.45z"/>
		</g>
		<circle class="st1" cx="17.97" cy="53.49" r="9.41"/>
	</g>
	<g>
		<path class="st2" d="M90.55,35.49h-9.08c0.19,0.94,0.59,1.67,1.21,2.17c0.62,0.5,1.57,0.75,2.85,0.75c0.74,0,1.41-0.1,2-0.31
			c0.59-0.2,1.23-0.5,1.92-0.89l1.06,2.61c-0.69,0.54-1.43,0.95-2.22,1.24c-0.8,0.29-1.74,0.43-2.83,0.43
			c-2.56,0-4.5-0.62-5.82-1.88c-1.32-1.25-1.99-2.98-1.99-5.18c0-1.43,0.27-2.68,0.82-3.75c0.55-1.07,1.33-1.9,2.35-2.49
			c1.02-0.58,2.22-0.88,3.61-0.88c1.35,0,2.49,0.31,3.42,0.94c0.93,0.63,1.61,1.48,2.06,2.54c0.44,1.07,0.67,2.25,0.67,3.57V35.49z
			 M81.5,33.07h5.64c-0.19-0.89-0.51-1.55-0.99-2c-0.47-0.44-1.08-0.67-1.82-0.67s-1.36,0.23-1.86,0.68S81.65,32.2,81.5,33.07z"/>
		<path class="st2" d="M102.94,27.69h3.61v13.47h-2.36l-0.61-1.44c-0.83,0.59-1.72,1.06-2.67,1.39s-1.79,0.5-2.53,0.5
			c-1.7,0-2.9-0.48-3.58-1.44c-0.69-0.96-1.03-2.31-1.03-4.03v-8.44h3.61v8.28c0,0.83,0.17,1.48,0.51,1.94
			c0.34,0.46,0.82,0.69,1.43,0.69c0.63,0,1.22-0.14,1.78-0.43c0.56-0.29,1.17-0.67,1.83-1.15V27.69z"/>
		<path class="st2" d="M114.33,41.16h-3.61V27.69h1.89l1.19,2.25c0.65-0.57,1.41-1.09,2.28-1.55c0.87-0.46,1.64-0.69,2.3-0.69
			l0.72,2.89c-0.61,0-1.37,0.22-2.26,0.67c-0.9,0.44-1.74,1.01-2.51,1.69V41.16z"/>
		<path class="st2" d="M134.1,35.49h-9.08c0.18,0.94,0.59,1.67,1.21,2.17s1.57,0.75,2.85,0.75c0.74,0,1.41-0.1,2-0.31
			c0.59-0.2,1.23-0.5,1.92-0.89l1.06,2.61c-0.69,0.54-1.43,0.95-2.22,1.24c-0.8,0.29-1.74,0.43-2.83,0.43
			c-2.55,0-4.5-0.62-5.82-1.88c-1.32-1.25-1.99-2.98-1.99-5.18c0-1.43,0.27-2.68,0.82-3.75c0.55-1.07,1.33-1.9,2.35-2.49
			c1.02-0.58,2.22-0.88,3.61-0.88c1.35,0,2.49,0.31,3.42,0.94s1.61,1.48,2.06,2.54c0.44,1.07,0.67,2.25,0.67,3.57V35.49z
			 M125.05,33.07h5.64c-0.18-0.89-0.51-1.55-0.99-2c-0.47-0.44-1.08-0.67-1.82-0.67c-0.74,0-1.36,0.23-1.86,0.68
			S125.2,32.2,125.05,33.07z"/>
		<path class="st2" d="M137.72,41.16v-19.3l3.58-0.31V32.6l5.78-5.31l2.03,2.56l-3.78,3.31l4.94,8h-4.14l-3.39-5.69l-1.44,1.28v4.42
			H137.72z"/>
		<path class="st2" d="M154.21,31.55l-0.97-3c0.48-0.31,1.25-0.6,2.3-0.85c1.06-0.25,1.9-0.38,2.53-0.38c1.07,0,2.05,0.21,2.94,0.64
			c0.89,0.43,1.6,1.02,2.12,1.78c0.53,0.76,0.79,1.61,0.79,2.56v8.86h-2.36l-0.61-1.44c-1.13,1.19-2.32,1.78-3.56,1.78
			c-1.61,0-2.82-0.39-3.64-1.18c-0.82-0.79-1.22-1.85-1.22-3.18c0-1.37,0.46-2.43,1.39-3.18c0.93-0.75,2.17-1.12,3.72-1.12h2.64
			c-0.02-0.68-0.22-1.22-0.6-1.6c-0.38-0.38-0.9-0.57-1.57-0.57c-0.61,0-1.29,0.09-2.03,0.26S154.73,31.31,154.21,31.55z
			 M155.63,37.13c0,0.41,0.16,0.76,0.49,1.06s0.74,0.44,1.24,0.44c1.07,0,2.06-0.44,2.97-1.33v-2.06h-2.72
			c-0.59,0-1.07,0.19-1.43,0.56C155.81,36.17,155.63,36.61,155.63,37.13z"/>
		<path class="st3" d="M177.17,24.67v16.49h-1.12l-0.35-0.87c-0.47,0.37-0.97,0.66-1.52,0.87s-1.06,0.3-1.54,0.3
			c-1.68,0-3.01-0.55-3.96-1.65s-1.44-2.56-1.44-4.39c0-1.15,0.22-2.18,0.67-3.08c0.44-0.9,1.08-1.59,1.89-2.09s1.78-0.75,2.89-0.75
			c0.41,0,0.84,0.08,1.3,0.23s0.9,0.37,1.32,0.63v-5.5L177.17,24.67z M174.1,39.62c0.43-0.18,0.83-0.46,1.21-0.83v-6.71
			c-0.75-0.67-1.64-1.01-2.67-1.01c-1.12,0-1.99,0.4-2.6,1.2c-0.61,0.8-0.92,1.84-0.94,3.12c0,1.36,0.3,2.44,0.9,3.26
			c0.6,0.82,1.47,1.23,2.61,1.23C173.17,39.89,173.67,39.8,174.1,39.62z"/>
		<path class="st3" d="M182.18,27.54c-0.36,0-0.66-0.12-0.89-0.35c-0.23-0.23-0.35-0.53-0.35-0.89c0-0.36,0.12-0.66,0.35-0.9
			c0.23-0.24,0.53-0.36,0.89-0.36c0.34,0,0.64,0.12,0.89,0.37c0.25,0.25,0.37,0.55,0.37,0.89c0,0.34-0.12,0.64-0.37,0.88
			C182.82,27.42,182.52,27.54,182.18,27.54z M181.27,41.16V29.81h1.87v11.34H181.27z"/>
		<path class="st3" d="M196.24,29.81V42.4c0,0.8-0.2,1.5-0.61,2.13c-0.41,0.62-1,1.11-1.78,1.47c-0.78,0.36-1.69,0.54-2.74,0.54
			c-0.53,0-1.2-0.1-2.02-0.29c-0.82-0.19-1.46-0.44-1.93-0.74l0.56-1.36c0.61,0.3,1.15,0.51,1.63,0.65c0.48,0.14,1.04,0.21,1.7,0.21
			c0.98,0,1.78-0.23,2.4-0.68c0.62-0.45,0.92-1.11,0.92-1.96v-1.8c-0.42,0.28-0.87,0.5-1.35,0.66c-0.48,0.16-0.92,0.23-1.32,0.23
			c-1.68,0-3.01-0.55-3.96-1.65s-1.44-2.56-1.44-4.39c0-1.15,0.22-2.18,0.67-3.08c0.44-0.9,1.08-1.59,1.89-2.09s1.78-0.75,2.89-0.75
			c0.47,0,0.97,0.1,1.5,0.3c0.53,0.2,1.02,0.48,1.47,0.82l0.4-0.82H196.24z M193.16,39.62c0.43-0.18,0.83-0.46,1.21-0.83v-6.71
			c-0.75-0.67-1.64-1.01-2.67-1.01c-1.12,0-1.99,0.4-2.6,1.2c-0.61,0.8-0.92,1.84-0.94,3.12c0,1.36,0.3,2.44,0.9,3.26
			c0.6,0.82,1.47,1.23,2.61,1.23C192.24,39.89,192.73,39.8,193.16,39.62z"/>
		<path class="st3" d="M201.15,27.54c-0.36,0-0.66-0.12-0.89-0.35c-0.23-0.23-0.35-0.53-0.35-0.89c0-0.36,0.12-0.66,0.35-0.9
			c0.23-0.24,0.53-0.36,0.89-0.36c0.34,0,0.64,0.12,0.89,0.37c0.25,0.25,0.37,0.55,0.37,0.89c0,0.34-0.12,0.64-0.37,0.88
			C201.79,27.42,201.49,27.54,201.15,27.54z M200.24,41.16V29.81h1.87v11.34H200.24z"/>
		<path class="st3" d="M210.43,30l0.61,1.4h-2.67v6.55c0,0.61,0.13,1.08,0.4,1.43c0.26,0.34,0.67,0.51,1.22,0.51
			c0.3,0,0.64-0.08,1.03-0.23l0.42,1.45c-0.56,0.26-1.14,0.4-1.73,0.4c-0.98,0-1.76-0.28-2.33-0.85s-0.85-1.38-0.85-2.44V31.4h-1.64
			l-0.02-1.4h1.66v-2.9l1.85-0.51V30H210.43z"/>
		<path class="st3" d="M215.35,31.89l-0.54-1.4c0.41-0.28,1-0.51,1.79-0.7c0.79-0.19,1.44-0.28,1.95-0.28
			c0.86,0,1.62,0.16,2.29,0.49c0.67,0.33,1.19,0.78,1.57,1.36c0.37,0.58,0.56,1.23,0.56,1.96v7.84h-1.38l-0.23-1.15
			c-0.42,0.39-0.94,0.73-1.57,1.02c-0.62,0.29-1.23,0.43-1.83,0.43c-1.26,0-2.23-0.33-2.89-0.98c-0.66-0.65-0.99-1.5-0.99-2.55
			c0-1.09,0.37-1.94,1.12-2.55c0.75-0.61,1.74-0.91,2.97-0.91h2.92v-0.63c0-0.84-0.2-1.5-0.6-1.99c-0.4-0.48-1.03-0.72-1.88-0.72
			c-0.67,0-1.24,0.07-1.72,0.2C216.42,31.45,215.91,31.65,215.35,31.89z M215.79,37.93c0,0.55,0.18,1.02,0.54,1.43
			c0.36,0.41,0.89,0.61,1.59,0.61c0.61,0,1.19-0.16,1.74-0.47c0.55-0.31,1.04-0.72,1.46-1.22v-2.57h-2.99
			c-0.73,0-1.31,0.21-1.72,0.64C216,36.78,215.79,37.31,215.79,37.93z"/>
		<path class="st3" d="M226.97,41.16V24.88l1.85-0.23v16.51H226.97z"/>
	</g>
</g>
<g>
</g>
<g>
</g>
<g>
</g>
<g>
</g>
<g>
</g>
<g>
</g>
<g>
</g>
<g>
</g>
<g>
</g>
<g>
</g>
<g>
</g>
<g>
</g>
<g>
</g>
<g>
</g>
<g>
</g>
</svg>
